<?xml version="1.0" encoding="utf-8"?>
<!-- Generator: Adobe Illustrator 27.9.0, SVG Export Plug-In . SVG Version: 6.00 Build 0)  -->
<svg version="1.1" id="Capa_1" xmlns="http://www.w3.org/2000/svg" xmlns:xlink="http://www.w3.org/1999/xlink" x="0px" y="0px"
    viewBox="0 0 650.73 911.82" style="enable-background:new 0 0 650.73 911.82;" xml:space="preserve">
<style type="text/css">
	.st0{fill-rule:evenodd;clip-rule:evenodd;fill:#D9974D;}
	.st1{fill-rule:evenodd;clip-rule:evenodd;fill:#203264;}
</style>
<g>
	<polygon class="st0" points="83.76,246.15 195.8,246.15 253.61,246.15 397.13,246.15 454.93,246.15 566.96,246.15 566.96,188.35 
		566.96,122.76 454.93,122.76 454.93,188.35 397.13,188.35 397.13,65 253.61,65 253.61,188.35 195.8,188.35 195.8,122.76 
		83.76,122.76 83.76,188.35 83.76,246.15 	"/>
	<polygon class="st1" points="398.17,299.67 398.17,420.15 252.56,523.36 252.56,299.67 83.76,299.67 83.76,734.3 252.56,846.82 
		252.56,666.65 398.17,563.44 398.17,846.82 566.96,734.3 566.96,299.67 	"/>
</g>
</svg>
